<svg width="43" height="48" viewBox="0 0 43 48" fill="none" xmlns="http://www.w3.org/2000/svg">
<path fill-rule="evenodd" clip-rule="evenodd" d="M30.315 11.6664C30.8931 11.2584 31.4354 10.7952 31.8988 10.2744C32.7421 9.3264 33.4444 8.0544 33.4444 6.5136C33.4444 4.9152 32.6872 3.6624 31.7173 2.7864C30.7952 1.9512 29.6342 1.4016 28.5257 1.0272C26.3017 0.2712 23.6309 0 21.5 0C19.3691 0 16.6983 0.2712 14.4743 1.0272C13.3658 1.4016 12.2048 1.9512 11.2827 2.7864C10.3128 3.6624 9.55556 4.9152 9.55556 6.5136C9.55556 8.0544 10.2579 9.3264 11.1012 10.272C11.5735 10.797 12.105 11.2649 12.685 11.6664C5.55417 15.0816 0 22.404 0 31.2C0 37.3344 2.43667 41.7264 6.60767 44.46C10.6091 47.0808 15.9339 48 21.5 48C27.0661 48 32.3933 47.0808 36.3923 44.46C40.5633 41.7264 43 37.332 43 31.2C43 22.404 37.4458 15.0816 30.315 11.6664ZM14.4767 6.3528C14.421 6.40058 14.3727 6.45639 14.3333 6.5184C14.3333 6.5424 14.3524 6.7248 14.6606 7.0728C14.9951 7.4496 15.5564 7.8768 16.3376 8.2824C17.9143 9.1032 19.9281 9.6 21.5 9.6C23.0719 9.6 25.0881 9.1032 26.6624 8.2824C27.4436 7.8768 28.0026 7.4496 28.3394 7.0728C28.6476 6.7248 28.6643 6.5448 28.6667 6.5184C28.6273 6.45636 28.579 6.40055 28.5233 6.3528C28.2701 6.1272 27.7828 5.8416 26.9968 5.5728C25.4345 5.0448 23.3275 4.8 21.5 4.8C19.6725 4.8 17.5655 5.0424 16.0032 5.5728C15.2148 5.8416 14.7299 6.1248 14.4791 6.3528H14.4767ZM20.0523 21.7272C19.9182 21.4354 19.727 21.1737 19.4903 20.9575C19.2535 20.7413 18.9759 20.5752 18.674 20.4688C18.3721 20.3625 18.052 20.3182 17.7327 20.3385C17.4134 20.3588 17.1015 20.4433 16.8153 20.587C16.5292 20.7308 16.2747 20.9308 16.0669 21.1752C15.8592 21.4197 15.7024 21.7035 15.6059 22.01C15.5095 22.3164 15.4753 22.6392 15.5053 22.9592C15.5354 23.2792 15.6291 23.5899 15.781 23.8728L17.0376 26.4H16.7222C16.0886 26.4 15.481 26.6529 15.033 27.1029C14.585 27.553 14.3333 28.1635 14.3333 28.8C14.3333 29.4365 14.585 30.047 15.033 30.4971C15.481 30.9471 16.0886 31.2 16.7222 31.2H19.1111V32.4H16.7222C16.0886 32.4 15.481 32.6529 15.033 33.1029C14.585 33.553 14.3333 34.1635 14.3333 34.8C14.3333 35.4365 14.585 36.047 15.033 36.4971C15.481 36.9471 16.0886 37.2 16.7222 37.2H19.1111V38.4C19.1111 39.0365 19.3628 39.647 19.8108 40.0971C20.2588 40.5471 20.8664 40.8 21.5 40.8C22.1336 40.8 22.7412 40.5471 23.1892 40.0971C23.6372 39.647 23.8889 39.0365 23.8889 38.4V37.2H26.2778C26.9114 37.2 27.519 36.9471 27.967 36.4971C28.415 36.047 28.6667 35.4365 28.6667 34.8C28.6667 34.1635 28.415 33.553 27.967 33.1029C27.519 32.6529 26.9114 32.4 26.2778 32.4H23.8889V31.2H26.2778C26.9114 31.2 27.519 30.9471 27.967 30.4971C28.415 30.047 28.6667 29.4365 28.6667 28.8C28.6667 28.1635 28.415 27.553 27.967 27.1029C27.519 26.6529 26.9114 26.4 26.2778 26.4H25.9624L27.219 23.8728C27.3708 23.5899 27.4646 23.2792 27.4947 22.9592C27.5247 22.6392 27.4905 22.3164 27.3941 22.01C27.2976 21.7035 27.1408 21.4197 26.9331 21.1752C26.7253 20.9308 26.4708 20.7308 26.1847 20.587C25.8985 20.4433 25.5866 20.3588 25.2673 20.3385C24.948 20.3182 24.6279 20.3625 24.326 20.4688C24.0241 20.5752 23.7465 20.7413 23.5097 20.9575C23.273 21.1737 23.0818 21.4354 22.9477 21.7272L21.5 24.6312L20.0523 21.7272Z" fill="url(#paint0_linear_744_204)"/>
<defs>
<linearGradient id="paint0_linear_744_204" x1="43" y1="48" x2="0" y2="48" gradientUnits="userSpaceOnUse">
<stop stop-color="#9E2FFF"/>
<stop offset="1" stop-color="#FF9E2F"/>
</linearGradient>
</defs>
</svg>
