<svg width="55" height="61" viewBox="0 0 55 61" fill="none" xmlns="http://www.w3.org/2000/svg">
<path d="M23.3189 1.95131C25.7941 0.52225 28.8436 0.522252 31.3189 1.95131L50.0896 12.7886C52.5648 14.2177 54.0896 16.8587 54.0896 19.7168L54.0896 41.3914C54.0896 44.2496 52.5648 46.8906 50.0896 48.3196L31.3189 59.1569C28.8436 60.586 25.7941 60.586 23.3189 59.1569L4.54809 48.3196C2.07288 46.8906 0.548096 44.2496 0.548096 41.3914L0.548096 19.7168C0.548096 16.8587 2.07289 14.2177 4.5481 12.7886L23.3189 1.95131Z" fill="url(#paint0_linear_324_2)"/>
<path d="M37.5 29.0484C38.1667 29.4333 38.1667 30.3955 37.5 30.7804L22.6284 39.3665C21.9618 39.7514 21.1284 39.2703 21.1284 38.5005L21.1284 21.3283C21.1284 20.5585 21.9618 20.0773 22.6284 20.4622L37.5 29.0484Z" fill="#D9D9D9"/>
<defs>
<linearGradient id="paint0_linear_324_2" x1="54" y1="60.311" x2="0.566271" y2="60.3108" gradientUnits="userSpaceOnUse">
<stop stop-color="#9E2FFF"/>
<stop offset="1" stop-color="#FF9E2F"/>
</linearGradient>
</defs>
</svg>
