<svg width="25" height="28" viewBox="0 0 25 28" fill="none" xmlns="http://www.w3.org/2000/svg">
<path fill-rule="evenodd" clip-rule="evenodd" d="M13 2.13397L22.5 7.6188C22.8094 7.79744 23 8.12756 23 8.48483V19.4545C23 19.8118 22.8094 20.1419 22.5 20.3205L19.5727 22.0106C19.2274 19.1975 16.8297 17.0191 13.9232 17.0191H10.6706C7.83918 17.0191 5.49063 19.0864 5.05192 21.7939L2.5 20.3205C2.1906 20.1419 2 19.8118 2 19.4545V8.48483C2 8.12756 2.1906 7.79744 2.5 7.6188L12 2.13397C12.3094 1.95534 12.6906 1.95534 13 2.13397ZM16.4474 26.1244L14 27.5374C13.0718 28.0733 11.9282 28.0733 11 27.5374L1.5 22.0526C0.571798 21.5167 0 20.5263 0 19.4545V8.48483C0 7.41303 0.571797 6.42265 1.5 5.88675L11 0.401924C11.9282 -0.133974 13.0718 -0.133975 14 0.401923L23.5 5.88675C24.4282 6.42265 25 7.41303 25 8.48483V19.4545C25 20.5263 24.4282 21.5167 23.5 22.0526L19.3444 24.4518C19.3444 24.4519 19.3443 24.452 19.3443 24.4521L16.5003 26.0941C16.4827 26.1043 16.4651 26.1144 16.4474 26.1244ZM16.7692 10.9203C16.7692 13.3903 14.7668 15.3927 12.2967 15.3927C9.82667 15.3927 7.8243 13.3903 7.8243 10.9203C7.8243 8.45019 9.82667 6.44782 12.2967 6.44782C14.7668 6.44782 16.7692 8.45019 16.7692 10.9203Z" fill="black"/>
</svg>
