<svg width="72" height="60" viewBox="0 0 72 60" fill="none" xmlns="http://www.w3.org/2000/svg">
<path d="M6.98394 58.8777C6.2458 58.1295 5.87673 57.2662 5.87673 56.2878C5.87673 55.3093 6.2458 54.446 6.98394 53.6978L27.5951 32.8058C27.9358 32.4604 28.3049 32.2153 28.7023 32.0702C29.0998 31.9275 29.5256 31.8561 29.9799 31.8561C30.4341 31.8561 30.86 31.9275 31.2574 32.0702C31.6549 32.2153 32.0239 32.4604 32.3646 32.8058L43.6071 44.2014L65.4106 19.3381C66.0352 18.5899 66.8449 18.2158 67.8397 18.2158C68.8322 18.2158 69.6691 18.5611 70.3505 19.2518C70.9751 19.8849 71.3021 20.6481 71.3316 21.5413C71.3589 22.4322 71.0602 23.223 70.4356 23.9137L45.9918 51.7986C45.6512 52.2014 45.2685 52.503 44.8437 52.7033C44.4168 52.9059 43.9761 53.0072 43.5219 53.0072C43.0677 53.0072 42.6282 52.9209 42.2035 52.7482C41.7765 52.5755 41.3927 52.3165 41.052 51.9712L29.9799 40.7482L12.0941 58.8777C11.356 59.6259 10.5043 60 9.53905 60C8.57379 60 7.72209 59.6259 6.98394 58.8777ZM7.83565 36.6043C7.55175 36.6043 7.26785 36.5318 6.98394 36.3868C6.70004 36.244 6.47292 36 6.30258 35.6547L4.59918 31.9424L0.936871 30.2158C0.59619 30.0432 0.355443 29.813 0.214628 29.5252C0.0715427 29.2374 0 28.9496 0 28.6619C0 28.3741 0.0715427 28.0863 0.214628 27.7986C0.355443 27.5108 0.59619 27.2806 0.936871 27.1079L4.59918 25.3813L6.30258 21.6691C6.47292 21.3237 6.70004 21.0786 6.98394 20.9335C7.26785 20.7908 7.55175 20.7194 7.83565 20.7194C8.11955 20.7194 8.40345 20.7908 8.68735 20.9335C8.97125 21.0786 9.19837 21.3237 9.36871 21.6691L11.0721 25.3813L14.7344 27.1079C15.359 27.3957 15.6713 27.9137 15.6713 28.6619C15.6713 29.4101 15.359 29.9281 14.7344 30.2158L11.0721 31.9424L9.36871 35.6547C9.19837 36 8.97125 36.244 8.68735 36.3868C8.40345 36.5318 8.11955 36.6043 7.83565 36.6043ZM45.3105 29.6978C45.0266 29.6978 44.7427 29.6253 44.4588 29.4803C44.1749 29.3376 43.9478 29.0935 43.7774 28.7482L42.074 25.036L38.4117 23.3094C38.071 23.1367 37.8303 22.9065 37.6895 22.6187C37.5464 22.3309 37.4748 22.0432 37.4748 21.7554C37.4748 21.4676 37.5464 21.1799 37.6895 20.8921C37.8303 20.6043 38.071 20.3741 38.4117 20.2014L42.074 18.4748L43.7774 14.7626C43.9478 14.4173 44.1749 14.1721 44.4588 14.0271C44.7427 13.8843 45.0266 13.8129 45.3105 13.8129C45.5944 13.8129 45.8783 13.8843 46.1622 14.0271C46.4461 14.1721 46.6732 14.4173 46.8435 14.7626L48.5469 18.4748L52.2092 20.2014C52.5499 20.3741 52.7918 20.6043 52.9349 20.8921C53.0757 21.1799 53.1461 21.4676 53.1461 21.7554C53.1461 22.0432 53.0757 22.3309 52.9349 22.6187C52.7918 22.9065 52.5499 23.1367 52.2092 23.3094L48.5469 25.036L46.8435 28.7482C46.6732 29.0935 46.4461 29.3376 46.1622 29.4803C45.8783 29.6253 45.5944 29.6978 45.3105 29.6978ZM23.1663 19.3381C22.8824 19.3381 22.5985 19.2518 22.3146 19.0791C22.0307 18.9065 21.8035 18.6475 21.6332 18.3022L19.4188 13.4676L14.6493 11.223C14.3086 11.0504 14.0531 10.8201 13.8827 10.5324C13.7124 10.2446 13.6272 9.95683 13.6272 9.66906C13.6272 9.38129 13.7124 9.09352 13.8827 8.80575C14.0531 8.51799 14.3086 8.28777 14.6493 8.11511L19.4188 5.8705L21.6332 1.03597C21.8035 0.690647 22.0307 0.431655 22.3146 0.258993C22.5985 0.0863311 22.8824 0 23.1663 0C23.4502 0 23.7341 0.0863311 24.018 0.258993C24.3019 0.431655 24.529 0.690647 24.6993 1.03597L26.9137 5.8705L31.6833 8.11511C32.0239 8.28777 32.2795 8.51799 32.4498 8.80575C32.6201 9.09352 32.7053 9.38129 32.7053 9.66906C32.7053 9.95683 32.6201 10.2446 32.4498 10.5324C32.2795 10.8201 32.0239 11.0504 31.6833 11.223L26.9137 13.4676L24.6993 18.3022C24.529 18.6475 24.3019 18.9065 24.018 19.0791C23.7341 19.2518 23.4502 19.3381 23.1663 19.3381Z" fill="url(#paint0_linear_744_220)"/>
<defs>
<linearGradient id="paint0_linear_744_220" x1="71.3333" y1="60" x2="0" y2="60" gradientUnits="userSpaceOnUse">
<stop stop-color="#9E2FFF"/>
<stop offset="1" stop-color="#FF9E2F"/>
</linearGradient>
</defs>
</svg>
