<svg width="18" height="17" viewBox="0 0 18 17" fill="none" xmlns="http://www.w3.org/2000/svg">
<path d="M16.5478 5.4775L11.7078 5.0575L9.81778 0.6075C9.47778 -0.2025 8.31778 -0.2025 7.97778 0.6075L6.08778 5.0675L1.25778 5.4775C0.377778 5.5475 0.0177777 6.6475 0.687778 7.2275L4.35778 10.4075L3.25778 15.1275C3.05778 15.9875 3.98778 16.6675 4.74778 16.2075L8.89778 13.7075L13.0478 16.2175C13.8078 16.6775 14.7378 15.9975 14.5378 15.1375L13.4378 10.4075L17.1078 7.2275C17.7778 6.6475 17.4278 5.5475 16.5478 5.4775ZM8.89778 11.8375L5.13778 14.1075L6.13778 9.8275L2.81778 6.9475L7.19778 6.5675L8.89778 2.5375L10.6078 6.5775L14.9878 6.9575L11.6678 9.8375L12.6678 14.1175L8.89778 11.8375Z" fill="#FF9E2F"/>
</svg>
