<svg width="56" height="50" viewBox="0 0 56 50" fill="none" xmlns="http://www.w3.org/2000/svg">
<path d="M11.2 38.8889H25.2V33.3333H11.2V38.8889ZM39.2 38.8889H44.8V33.3333H39.2V38.8889ZM11.2 27.7778H25.2V22.2222H11.2V27.7778ZM39.2 27.7778H44.8V11.1111H39.2V27.7778ZM11.2 16.6667H25.2V11.1111H11.2V16.6667ZM5.6 50C4.06 50 2.74213 49.4565 1.6464 48.3694C0.5488 47.2806 0 45.9722 0 44.4444V5.55556C0 4.02778 0.5488 2.71944 1.6464 1.63056C2.74213 0.543518 4.06 0 5.6 0H50.4C51.94 0 53.2588 0.543518 54.3564 1.63056C55.4521 2.71944 56 4.02778 56 5.55556V44.4444C56 45.9722 55.4521 47.2806 54.3564 48.3694C53.2588 49.4565 51.94 50 50.4 50H5.6Z" fill="url(#paint0_linear_744_221)"/>
<defs>
<linearGradient id="paint0_linear_744_221" x1="56" y1="50" x2="0" y2="50" gradientUnits="userSpaceOnUse">
<stop stop-color="#9E2FFF"/>
<stop offset="1" stop-color="#FF9E2F"/>
</linearGradient>
</defs>
</svg>
